<?xml version="1.0" encoding="UTF-8"?>
<svg version="1.1" xmlns="http://www.w3.org/2000/svg" width="268" height="268">
<path d="M0,0 L18,0 L23,2 L25,6 L25,20 L34,24 L47,30 L49,26 L52,25 L54,20 L59,18 L61,19 L61,16 L63,16 L63,18 L69,20 L74,27 L79,32 L80,39 L74,47 L71,49 L72,55 L78,65 L78,69 L83,71 L95,69 L101,72 L103,81 L104,95 L99,100 L86,102 L84,107 L82,118 L81,124 L88,129 L91,130 L94,136 L94,142 L89,151 L83,158 L78,159 L71,156 L66,153 L62,152 L57,157 L55,157 L55,159 L48,163 L46,167 L49,177 L49,184 L46,187 L42,187 L41,189 L31,192 L23,192 L20,188 L17,178 L13,175 L-7,175 L-10,181 L-13,188 L-20,191 L-26,190 L-39,184 L-41,180 L-41,173 L-38,166 L-37,162 L-46,155 L-46,153 L-49,152 L-53,148 L-58,150 L-66,154 L-74,153 L-83,136 L-84,131 L-82,127 L-70,120 L-68,117 L-70,111 L-71,97 L-87,93 L-90,89 L-89,77 L-86,67 L-82,64 L-77,63 L-64,66 L-62,60 L-58,53 L-54,46 L-56,42 L-60,38 L-62,34 L-62,27 L-58,24 L-56,24 L-55,21 L-47,15 L-38,15 L-32,22 L-28,26 L-19,24 L-12,22 L-8,21 L-6,12 L-5,3 Z " fill="#01465A" transform="translate(108,71)"/>
<path d="M0,0 L8,0 L14,2 L15,11 L15,14 L28,19 L32,17 L36,13 L40,12 L44,14 L44,16 L48,18 L51,21 L51,27 L46,33 L47,38 L51,46 L57,47 L65,47 L68,59 L68,64 L62,67 L56,68 L54,73 L53,83 L60,88 L61,95 L55,104 L50,106 L45,104 L42,102 L39,102 L35,106 L30,108 L30,116 L31,122 L27,126 L19,128 L13,128 L11,123 L11,119 L7,117 L5,116 L5,114 L10,109 L11,106 L11,98 L9,91 L1,84 L-3,81 L-15,79 L-24,81 L-31,86 L-36,85 L-42,82 L-43,77 L-45,65 L-50,63 L-56,59 L-62,58 L-59,45 L-54,43 L-46,44 L-41,37 L-37,29 L-39,29 L-43,22 L-41,17 L-34,11 L-29,10 L-26,11 L-23,15 L-23,17 L-19,18 L-7,14 L-6,11 L-5,3 Z " fill="#02465A" transform="translate(184,5)"/>
<path d="M0,0 L14,0 L24,3 L35,10 L43,19 L47,27 L49,34 L49,48 L45,60 L37,70 L26,78 L18,81 L14,82 L0,82 L-10,79 L-21,72 L-29,63 L-33,55 L-35,48 L-35,34 L-31,22 L-23,12 L-12,4 L-4,1 Z " fill="#FFFFFF" transform="translate(107,127)"/>
<path d="M0,0 L10,0 L13,3 L13,10 L18,13 L24,15 L27,12 L32,11 L37,16 L38,17 L38,22 L35,23 L33,28 L37,36 L47,38 L48,41 L46,45 L40,47 L38,51 L35,56 L34,65 L33,67 L28,67 L27,69 L22,70 L19,67 L19,64 L17,64 L17,62 L3,59 L-9,60 L-13,68 L-19,76 L-22,78 L-23,75 L-25,75 L-29,69 L-40,70 L-44,62 L-43,58 L-37,55 L-37,44 L-44,40 L-45,35 L-42,28 L-35,28 L-32,29 L-30,25 L-26,19 L-29,13 L-29,10 L-27,10 L-26,8 L-22,5 L-17,6 L-16,10 L-10,11 L-2,8 Z " fill="#03465A" transform="translate(60,19)"/>
<path d="M0,0 L11,0 L20,4 L25,8 L30,16 L31,19 L31,30 L27,39 L22,45 L15,49 L10,50 L3,43 L-4,40 L-16,39 L-19,31 L-19,20 L-16,12 L-11,6 L-3,1 Z " fill="#FDFCFC" transform="translate(181,45)"/>
<path d="M0,0 L7,0 L14,3 L19,9 L20,12 L20,20 L16,27 L12,30 L0,29 L-6,30 L-11,23 L-12,20 L-12,12 L-9,6 L-3,1 Z " fill="#FDFDFD" transform="translate(57,49)"/>
</svg>
