<?xml version="1.0" encoding="UTF-8"?>
<svg version="1.1" xmlns="http://www.w3.org/2000/svg" width="268" height="268">
<path d="M0,0 L18,0 L23,2 L25,6 L25,20 L34,24 L47,30 L49,26 L52,25 L54,20 L59,18 L67,19 L72,24 L77,29 L80,36 L79,40 L74,47 L71,49 L72,55 L78,65 L78,69 L83,71 L95,69 L101,72 L103,81 L104,95 L99,100 L86,102 L84,107 L82,118 L81,124 L88,129 L91,130 L94,136 L94,142 L89,151 L83,158 L78,159 L71,156 L66,153 L62,152 L57,157 L55,157 L55,159 L48,163 L46,167 L49,177 L49,184 L46,187 L42,187 L41,189 L31,192 L23,192 L20,188 L17,178 L13,175 L-7,175 L-10,181 L-13,188 L-20,191 L-26,190 L-39,184 L-41,180 L-41,173 L-38,166 L-37,162 L-46,155 L-46,153 L-49,152 L-53,148 L-58,150 L-66,154 L-74,153 L-83,136 L-84,131 L-82,127 L-70,120 L-68,117 L-70,111 L-71,97 L-87,93 L-90,89 L-89,77 L-86,67 L-82,64 L-77,63 L-64,66 L-62,60 L-58,53 L-54,46 L-56,42 L-60,38 L-62,34 L-62,27 L-58,24 L-56,24 L-55,21 L-47,15 L-38,15 L-32,22 L-28,26 L-19,24 L-12,22 L-8,21 L-6,12 L-5,3 Z M-1,56 L-11,59 L-22,66 L-30,75 L-34,83 L-36,90 L-36,104 L-32,116 L-24,126 L-13,134 L-5,137 L-1,138 L13,138 L23,135 L34,128 L42,119 L46,111 L48,104 L48,90 L44,78 L36,68 L25,60 L17,57 L13,56 Z " fill="#691E11" transform="translate(108,71)"/>
<path d="M0,0 L8,0 L14,2 L15,11 L15,14 L28,19 L32,17 L36,13 L40,12 L44,14 L44,16 L48,18 L51,21 L51,27 L46,33 L47,38 L51,46 L57,47 L65,47 L68,59 L68,64 L62,67 L56,68 L54,73 L53,83 L60,88 L61,95 L55,104 L50,106 L45,104 L42,102 L39,102 L35,106 L30,108 L30,116 L31,122 L27,126 L19,128 L13,128 L11,123 L11,119 L7,117 L5,116 L5,114 L10,109 L11,106 L11,98 L8,89 L18,84 L24,76 L26,71 L26,60 L21,50 L13,44 L8,42 L-3,42 L-13,47 L-19,55 L-21,60 L-21,71 L-19,76 L-19,79 L-27,83 L-31,86 L-36,85 L-42,82 L-43,77 L-45,65 L-50,63 L-56,59 L-62,58 L-59,45 L-54,43 L-46,44 L-41,37 L-37,29 L-39,29 L-43,22 L-41,17 L-34,11 L-29,10 L-26,11 L-23,15 L-23,17 L-19,18 L-7,14 L-6,11 L-5,3 Z " fill="#691E11" transform="translate(184,5)"/>
<path d="M0,0 L10,0 L13,3 L13,10 L18,13 L24,15 L27,12 L32,11 L37,16 L38,17 L38,22 L35,23 L33,28 L37,36 L47,38 L48,41 L46,45 L40,47 L38,51 L35,56 L34,65 L33,67 L28,67 L27,69 L22,70 L19,67 L19,64 L17,64 L17,62 L9,60 L15,52 L16,50 L16,42 L12,36 L8,33 L5,32 L-3,32 L-9,35 L-13,40 L-14,42 L-14,50 L-10,56 L-9,59 L-13,68 L-19,76 L-22,78 L-23,75 L-25,75 L-29,69 L-40,70 L-44,62 L-43,58 L-37,55 L-37,44 L-44,40 L-45,35 L-42,28 L-35,28 L-32,29 L-30,25 L-26,19 L-29,13 L-29,10 L-27,10 L-26,8 L-22,5 L-17,6 L-16,10 L-10,11 L-2,8 Z " fill="#691E11" transform="translate(60,19)"/>
</svg>
