<?xml version="1.0" encoding="UTF-8"?>
<svg version="1.1" xmlns="http://www.w3.org/2000/svg" width="268" height="268">
<path d="M0 0 C0.7940625 -0.00322266 1.588125 -0.00644531 2.40625 -0.00976562 C6.61875402 0.028849 10.28899772 0.09854978 14 2.3125 C16.65398656 5.71341691 16.20210807 9.39866407 16.125 13.5625 C16.10695313 14.82578125 16.08890625 16.0890625 16.0703125 17.390625 C16.04710937 18.35484375 16.02390625 19.3190625 16 20.3125 C16.49886719 20.53164062 16.99773437 20.75078125 17.51171875 20.9765625 C24.37799761 24.00906627 31.19043172 27.15504948 38 30.3125 C38.268125 29.673125 38.53625 29.03375 38.8125 28.375 C40 26.3125 40 26.3125 43 25.3125 C43.28875 24.508125 43.5775 23.70375 43.875 22.875 C45 20.3125 45 20.3125 47.5 18.9375 C50 18.3125 50 18.3125 52 19.3125 C52 18.3225 52 17.3325 52 16.3125 C52.66 16.3125 53.32 16.3125 54 16.3125 C54 16.9725 54 17.6325 54 18.3125 C54.886875 18.498125 55.77375 18.68375 56.6875 18.875 C60.55197565 20.5520366 61.57671683 22.07773515 63.76953125 25.51953125 C65.08231764 27.57942308 65.08231764 27.57942308 67.75 29.8125 C70.73363446 33.1276494 71.22661144 34.85580836 71 39.3125 C68.67948658 43.53996999 66.00892129 46.63988581 62 49.3125 C62.2915 54.851 64.74695422 58.45025203 67.72265625 62.9453125 C69 65.3125 69 65.3125 69 69.3125 C73.13218969 71.38238584 75.48466117 71.2987381 79.9375 70.25 C83.72403572 69.55137717 85.81983406 69.27211798 89.625 70.125 C93.22779887 73.44336738 93.45876631 76.56680455 94 81.3125 C94.25136719 83.05853516 94.25136719 83.05853516 94.5078125 84.83984375 C95.58221441 94.14807118 95.58221441 94.14807118 93.375 98.5625 C88.9487755 100.85757937 84.80480434 101.20433751 79.86328125 101.5625 C76.8355859 101.99837559 76.8355859 101.99837559 75.671875 104.53515625 C75.0101878 107.2703865 74.40594031 109.97478641 73.9375 112.75 C73.77378906 113.70390625 73.61007813 114.6578125 73.44140625 115.640625 C73.22291016 116.96320313 73.22291016 116.96320313 73 118.3125 C72.79375 119.529375 72.5875 120.74625 72.375 122 C72.189375 123.1446875 72.189375 123.1446875 72 124.3125 C73.10067996 125.12971717 74.20569731 125.94109451 75.3125 126.75 C75.92738281 127.20246094 76.54226562 127.65492188 77.17578125 128.12109375 C79.09677101 129.48586308 79.09677101 129.48586308 82 130.3125 C84.57746306 134.41734858 85.75554288 137.49591415 85 142.3125 C82.27315883 148.67512939 78.07054493 156.43378695 71.5625 159.4375 C66.92656835 159.21135699 63.22070548 157.05060099 59.3125 154.6875 C56.34760686 152.81729787 56.34760686 152.81729787 53 152.3125 C50.35412766 154.70835286 50.35412766 154.70835286 48 157.3125 C47.34 157.3125 46.68 157.3125 46 157.3125 C46 157.9725 46 158.6325 46 159.3125 C44.2421875 160.22395833 42.484375 161.13541667 40.7265625 162.046875 C38.56524903 163.63118623 37.81287156 164.75842061 37 167.3125 C37.40937645 169.70500357 37.40937645 169.70500357 38.375 172.125 C39.77098155 176.35033702 40.5503869 179.81767365 40 184.3125 C38.75 186.25 38.75 186.25 37 187.3125 C35.68 187.3125 34.36 187.3125 33 187.3125 C32.67 187.9725 32.34 188.6325 32 189.3125 C26.17722554 191.78689538 20.28426563 193.08425192 14 192.3125 C10.72952724 188.88554529 10.0142754 185.13950089 8.94140625 180.65234375 C7.77383699 177.75037699 6.64856351 176.93554295 4 175.3125 C1.68757604 174.90379912 1.68757604 174.90379912 -0.765625 175.01953125 C-2.09980469 175.0340332 -2.09980469 175.0340332 -3.4609375 175.04882812 C-4.38132812 175.07396484 -5.30171875 175.09910156 -6.25 175.125 C-7.18585938 175.13853516 -8.12171875 175.15207031 -9.0859375 175.16601562 C-11.39121327 175.20130046 -13.6953106 175.25059719 -16 175.3125 C-17.6514279 178.52915489 -19.08657841 181.56790632 -20.25 185 C-22 188.3125 -22 188.3125 -25.3125 190.3125 C-31.51198506 191.99371629 -36.03620375 190.10017226 -41.75 187.5 C-42.87921875 186.99855469 -44.0084375 186.49710938 -45.171875 185.98046875 C-48.10267398 184.25194504 -49.00227326 183.49778911 -50 180.3125 C-50.52004181 174.80005686 -49.33892326 171.27101731 -47 166.3125 C-46.64076437 164.9859109 -46.30092588 163.6535192 -46 162.3125 C-46.6496875 161.83039063 -47.299375 161.34828125 -47.96875 160.8515625 C-48.8040625 160.21992188 -49.639375 159.58828125 -50.5 158.9375 C-51.3353125 158.31101563 -52.170625 157.68453125 -53.03125 157.0390625 C-54.00578125 156.18441406 -54.00578125 156.18441406 -55 155.3125 C-55 154.6525 -55 153.9925 -55 153.3125 C-55.99 152.9825 -56.98 152.6525 -58 152.3125 C-59.37195574 151.01894173 -60.71182656 149.68951298 -62 148.3125 C-64.36708363 149.20015636 -66.64007009 150.10452344 -68.83203125 151.37109375 C-69.48558594 151.74363281 -70.13914062 152.11617187 -70.8125 152.5 C-71.41707031 152.86480469 -72.02164063 153.22960937 -72.64453125 153.60546875 C-76.29317634 154.70066736 -79.49557988 154.7532207 -83 153.3125 C-85.25999002 150.85077203 -86.55218987 148.0827257 -87.9375 145.0625 C-88.32228516 144.29808594 -88.70707031 143.53367188 -89.10351562 142.74609375 C-93.60928795 133.57617398 -93.60928795 133.57617398 -92.4375 129.22265625 C-90.39363489 126.50675941 -87.98015091 125.35111473 -85 123.75 C-80.32795091 121.29316228 -80.32795091 121.29316228 -77 117.3125 C-77.61795793 115.29691759 -78.29364408 113.29882972 -79 111.3125 C-79.27821125 108.86109141 -79.48557345 106.40070235 -79.625 103.9375 C-79.69976562 102.69226563 -79.77453125 101.44703125 -79.8515625 100.1640625 C-79.92503906 98.75253906 -79.92503906 98.75253906 -80 97.3125 C-81.68029297 96.94898438 -81.68029297 96.94898438 -83.39453125 96.578125 C-84.86737563 96.24040272 -86.3400219 95.90181568 -87.8125 95.5625 C-88.55048828 95.40523438 -89.28847656 95.24796875 -90.04882812 95.0859375 C-93.19494688 94.34567426 -95.57549472 93.68856077 -98.01953125 91.5234375 C-100.92915866 84.96228566 -97.88809589 75.97637514 -96.01171875 69.37109375 C-94.73123574 66.76563218 -93.50161152 65.7691906 -91 64.3125 C-86.72382741 62.88231791 -83.49773918 63.66155576 -79.1875 64.75 C-77.44533203 65.18119141 -77.44533203 65.18119141 -75.66796875 65.62109375 C-74.78753906 65.84925781 -73.90710938 66.07742187 -73 66.3125 C-72.70867187 65.39339844 -72.41734375 64.47429687 -72.1171875 63.52734375 C-70.59697519 59.1527468 -68.30970125 55.31063396 -65.78125 51.453125 C-64.45507389 49.4289558 -64.45507389 49.4289558 -63 46.3125 C-63.65520006 43.44599972 -64.92693942 42.38556058 -67 40.3125 C-70.16043752 37.15206248 -70.90351622 35.22909593 -71.375 30.75 C-71 27.3125 -71 27.3125 -69.125 25.375 C-67 24.3125 -67 24.3125 -65 24.3125 C-64.505 22.8275 -64.505 22.8275 -64 21.3125 C-60.42848927 17.56788033 -56.61558771 14.90858819 -51.375 14.5 C-48.63987667 14.68359692 -47.37050939 15.00935595 -45.23828125 16.75390625 C-43.70337071 18.54399083 -42.32865921 20.36518384 -41 22.3125 C-39.37275054 24.94388206 -39.37275054 24.94388206 -37 26.3125 C-33.86300142 26.09805674 -30.99384447 25.23796206 -28 24.3125 C-26.741875 23.961875 -25.48375 23.61125 -24.1875 23.25 C-23.135625 22.940625 -22.08375 22.63125 -21 22.3125 C-19.66792868 21.97415862 -18.33485218 21.63969804 -17 21.3125 C-15.68692462 15.91996713 -14.76627531 10.81877868 -14.63671875 5.2578125 C-14 3.3125 -14 3.3125 -12.01953125 1.57421875 C-7.92718016 -0.13578048 -4.38772962 -0.08903672 0 0 Z " fill="#08260A" transform="translate(117,70.6875)"/>
<path d="M0 0 C0.16873478 1.43725871 0.33490737 2.87481838 0.5 4.3125 C0.5928125 5.11300781 0.685625 5.91351563 0.78125 6.73828125 C1 9 1 9 1 12 C3.0753682 12.89372793 5.16067006 13.76441696 7.25 14.625 C8.41015625 15.11226562 9.5703125 15.59953125 10.765625 16.1015625 C13.85298992 17.27531903 13.85298992 17.27531903 16.296875 16.27734375 C18.13605663 14.96742765 18.13605663 14.96742765 20 12.9375 C22.11968223 10.88405784 23.07976398 10.18251475 26 10 C28.25 10.9375 28.25 10.9375 30 12 C30 12.66 30 13.32 30 14 C30.598125 14.268125 31.19625 14.53625 31.8125 14.8125 C34.1040169 16.05646632 35.4830937 16.87633118 37 19 C37.5 21.8125 37.5 21.8125 37 25 C36.154375 26.010625 35.30875 27.02125 34.4375 28.0625 C31.76388013 30.66875916 31.76388013 30.66875916 31.9375 33.375 C32.288125 34.24125 32.63875 35.1075 33 36 C33.25265625 36.67804687 33.5053125 37.35609375 33.765625 38.0546875 C34.67990624 40.23191655 35.60567051 42.09337692 37 44 C39.77135894 45.18511083 39.77135894 45.18511083 43 45 C44.07121094 45.01740234 44.07121094 45.01740234 45.1640625 45.03515625 C47.10926154 45.05921348 49.05494128 45.0335355 51 45 C51.50744423 46.89385437 52.00564574 48.79018666 52.5 50.6875 C52.91765625 52.27111328 52.91765625 52.27111328 53.34375 53.88671875 C53.9391715 56.71142672 54.12786492 59.12836708 54 62 C50.81456479 63.74440499 48.38478567 64.95560165 44.75 65.375 C41.88327541 65.6973003 41.88327541 65.6973003 40.6875 67.9375 C39.71721983 72.25965711 39.32560466 76.58720004 39 81 C39.74056641 81.41958984 39.74056641 81.41958984 40.49609375 81.84765625 C43.99433531 84.03669675 45.73267538 85.33805332 47.3125 89.25 C46.87461583 94.50461003 44.63216208 98.20554982 41 102 C36.71170184 104.20334338 36.71170184 104.20334338 33.375 103.25 C31 102 31 102 28 100 C27.01 100 26.02 100 25 100 C24.38125 100.61875 23.7625 101.2375 23.125 101.875 C20.84747282 104.15252718 19.02380411 104.9920653 16 106 C15.89249658 111.67198311 15.89249658 111.67198311 16.75 117.25 C17 120 17 120 15.5625 122.25 C10.52126507 125.69279459 5.02850973 126.30142549 -1 126 C-2.49821059 122.62902617 -3 120.79557881 -3 117 C-3.61875 116.690625 -4.2375 116.38125 -4.875 116.0625 C-6.25 115.375 -7.625 114.6875 -9 114 C-9 113.34 -9 112.68 -9 112 C-7.33333333 110.33333333 -5.66666667 108.66666667 -4 107 C-2.01718012 101.05154035 -2.5105609 94.70496461 -5 89 C-7.4602171 86.38263247 -10.14691908 84.17480131 -13 82 C-13.62777344 81.46503906 -14.25554687 80.93007812 -14.90234375 80.37890625 C-20.15305868 76.92731897 -27.73345987 76.45532087 -33.8125 77.5625 C-36.97392542 78.4200295 -39.16300657 79.69579323 -41.75 81.6875 C-45 84 -45 84 -47.5625 84 C-48.366875 83.67 -49.17125 83.34 -50 83 C-51.0725 82.5875 -52.145 82.175 -53.25 81.75 C-56 80 -56 80 -56.625 77.77734375 C-56.88665759 75.83944219 -57.1300257 73.89902148 -57.359375 71.95703125 C-57.48828125 70.91933594 -57.6171875 69.88164063 -57.75 68.8125 C-57.86859375 67.76707031 -57.9871875 66.72164063 -58.109375 65.64453125 C-58.72991828 62.78758754 -58.72991828 62.78758754 -61.39453125 61.765625 C-62.68423828 61.38664062 -62.68423828 61.38664062 -64 61 C-65.4540625 59.9790625 -65.4540625 59.9790625 -66.9375 58.9375 C-70.14318206 56.90941543 -72.29847583 56.49937113 -76 56 C-75.63102969 53.87017138 -75.22889176 51.7460674 -74.8125 49.625 C-74.59207031 48.44164062 -74.37164062 47.25828125 -74.14453125 46.0390625 C-73 43 -73 43 -70.65625 41.5625 C-66.77681569 40.74097273 -63.89529754 41.33978008 -60 42 C-56.38138892 37.17518523 -53.58210626 32.45111321 -51 27 C-51.66 27 -52.32 27 -53 27 C-57.10309278 20.84536082 -57.10309278 20.84536082 -56.6875 17.4375 C-53.73938823 13.17911633 -50.20208958 9.75071236 -45.25 8.0625 C-43 8 -43 8 -40 9 C-37 12.44444444 -37 12.44444444 -37 15 C-33.17264069 16.44568536 -30.60687667 15.52557608 -26.8125 14.25 C-25.74644531 13.90453125 -24.68039063 13.5590625 -23.58203125 13.203125 C-22.72996094 12.80609375 -21.87789062 12.4090625 -21 12 C-20.12988987 9.38966961 -19.89211722 7.67992469 -19.75 5 C-19.37017241 1.91602675 -19.25554789 1.24780402 -16.9375 -1 C-10.88881919 -3.05912538 -5.82572157 -2.33028863 0 0 Z " fill="#08260A" transform="translate(198,7)"/>
<path d="M0 0 C7.91676133 5.31889906 13.85251694 11.97609542 17.375 20.875 C17.7875 21.90625 18.2 22.9375 18.625 24 C20.84072852 35.44793066 19.91261735 46.52939827 13.71484375 56.5625 C7.25889241 65.25881227 -1.22047534 71.77189615 -11.625 74.875 C-12.22183594 75.05675781 -12.81867188 75.23851562 -13.43359375 75.42578125 C-24.8283676 77.76160833 -35.41666392 75.56367332 -45.25 69.75 C-53.16676133 64.43110094 -59.10251694 57.77390458 -62.625 48.875 C-63.0375 47.84375 -63.45 46.8125 -63.875 45.75 C-66.09072852 34.30206934 -65.16261735 23.22060173 -58.96484375 13.1875 C-52.50889241 4.49118773 -44.02952466 -2.02189615 -33.625 -5.125 C-33.02816406 -5.30675781 -32.43132812 -5.48851563 -31.81640625 -5.67578125 C-20.4216324 -8.01160833 -9.83333608 -5.81367332 0 0 Z " fill="#47B54B" transform="translate(136.625,133.125)"/>
<path d="M0 0 C1.60332791 -0.08121924 3.20784026 -0.13929134 4.8125 -0.1875 C6.15248047 -0.23970703 6.15248047 -0.23970703 7.51953125 -0.29296875 C10 0 10 0 11.83203125 1.29296875 C13 3 13 3 12.875 6.5 C12.91625 7.655 12.9575 8.81 13 10 C16.21435294 12.74165398 19.98929406 13.787461 24 15 C24.391875 14.525625 24.78375 14.05125 25.1875 13.5625 C27.5545118 11.52197258 28.86248027 11 32 11 C34.75 13.375 34.75 13.375 37 16 C37.33 16.33 37.66 16.66 38 17 C38.04063832 18.66617115 38.042721 20.33388095 38 22 C36.515 22.495 36.515 22.495 35 23 C33.35627661 25.0599241 33.35627661 25.0599241 33 28 C33.6616651 31.22793627 34.74303211 33.58569541 37 36 C40.2957214 37.26164335 43.49210523 37.73222177 47 38 C48 41 48 41 47.4375 43.0625 C45.4344386 45.76227841 43.13450538 45.95516487 40 47 C38.72510734 48.79927039 38.72510734 48.79927039 38 51 C37.484375 51.721875 36.96875 52.44375 36.4375 53.1875 C34.72809133 56.53199522 34.4726698 59.30384448 34.2109375 63.01171875 C34 65 34 65 33 67 C31.35 67 29.7 67 28 67 C27.67 67.66 27.34 68.32 27 69 C24.625 69.8125 24.625 69.8125 22 70 C20.1875 68.75 20.1875 68.75 19 67 C19 66.01 19 65.02 19 64 C18.34 64 17.68 64 17 64 C17 63.34 17 62.68 17 62 C4.0620624 58.45788686 4.0620624 58.45788686 -9 60 C-10.64962752 61.83090527 -11.32242641 63.41438659 -12.14453125 65.73046875 C-13.11566041 68.30684336 -14.40632159 70.18146588 -16.0625 72.375 C-16.54847656 73.02210937 -17.03445312 73.66921875 -17.53515625 74.3359375 C-19 76 -19 76 -22 78 C-22.33 77.01 -22.66 76.02 -23 75 C-23.66 75 -24.32 75 -25 75 C-26.38938077 73.03852126 -27.7260411 71.03833424 -29 69 C-34.445 69.495 -34.445 69.495 -40 70 C-44.05460751 62.62798635 -44.05460751 62.62798635 -43.8125 59.84375 C-42.48982756 56.842301 -39.89510187 56.23195824 -37 55 C-37 51.37 -37 47.74 -37 44 C-38.134375 43.443125 -39.26875 42.88625 -40.4375 42.3125 C-42.9340771 40.86418144 -43.83687055 40.33532165 -45.125 37.6875 C-44.95005509 33.92618444 -43.65514434 31.37649446 -42 28 C-35.375 27.875 -35.375 27.875 -32 29 C-31.7525 28.46375 -31.505 27.9275 -31.25 27.375 C-29.70303025 24.43575748 -27.86985631 21.74245592 -26 19 C-26.495 18.071875 -26.99 17.14375 -27.5 16.1875 C-29 13 -29 13 -29 10 C-28.34 10 -27.68 10 -27 10 C-26.67 9.34 -26.34 8.68 -26 8 C-24.25 6.3125 -24.25 6.3125 -22 5 C-19.25 5.3125 -19.25 5.3125 -17 6 C-16.67 7.32 -16.34 8.64 -16 10 C-11.39658936 11.26593793 -8.05462937 10.9949073 -3.703125 9.234375 C-1.50150856 7.63870804 -1.14815591 6.42364239 -0.5 3.8125 C-0.335 2.554375 -0.17 1.29625 0 0 Z " fill="#08260A" transform="translate(60,19)"/>
<path d="M0 0 C5.71392485 5.20075716 9.54438485 9.88535253 10.2421875 17.71875 C10.59410364 25.9163259 9.50607576 32.01175272 4.01171875 38.26171875 C-0.58607747 42.6848146 -4.49528524 45.89508525 -11 46 C-13.05696798 44.46282739 -14.61362245 42.75415622 -16.3046875 40.82421875 C-21.66316429 35.05830017 -29.66772278 35.34915606 -37 35 C-40.40377967 27.62514405 -41.29566943 20.50227619 -39.4140625 12.51171875 C-36.67220739 5.2294522 -30.96125289 0.11266821 -24.1875 -3.5 C-15.61933591 -4.84402574 -7.35704778 -5.11853974 0 0 Z " fill="#4AB34D" transform="translate(202,49)"/>
<path d="M0 0 C4.4792694 2.54429089 7.16101329 5.02554403 8.6875 10.08203125 C9.63576543 16.49359865 8.93963932 21.28325041 5.09375 26.58203125 C3.6875 28.08203125 3.6875 28.08203125 1.5 29.14453125 C-1.98492944 29.06708837 -5.40279845 28.68207448 -8.86328125 28.2734375 C-11.81539743 28.04272986 -14.43758537 28.40113042 -17.3125 29.08203125 C-21.99465517 23.46344505 -23.80441337 19.93918886 -23.62109375 12.6171875 C-23.11409056 8.45206002 -21.91505713 6.41864296 -19.3125 3.08203125 C-13.4846845 -1.46366484 -7.04757738 -2.79760251 0 0 Z " fill="#4CB24E" transform="translate(68.3125,49.91796875)"/>
</svg>
